<svg xmlns="http://www.w3.org/2000/svg" width="51.76" height="68.261" viewBox="1400 254 51.76 68.261"><g data-name="Group 5517"><path d="m1400 296.665 25.596 25.596 25.596-25.596" stroke-linejoin="round" stroke-linecap="round" stroke-width="1.5" stroke="#fff" fill="transparent" data-name="Path 27374"/><path d="M1432.3 261.42c-.073-.395-.169-.784-.287-1.168-.058-.19-.114-.382-.18-.569a8.739 8.739 0 0 0-1.897-3.071 8.204 8.204 0 0 0-2.93-1.934 10.209 10.209 0 0 0-3.783-.677h-5.132v1.138h5.132a8.549 8.549 0 0 1 3.204.578 6.78 6.78 0 0 1 2.47 1.679 7.648 7.648 0 0 1 1.593 2.696c.13.377.234.763.312 1.154.131.637.207 1.285.228 1.934.007.18.018.354.018.538a10.918 10.918 0 0 1-.55 3.599c0 .014-.008.031-.013.045a8.06 8.06 0 0 1-.978 1.926c-.186.272-.39.53-.611.772a6.75 6.75 0 0 1-2.47 1.677 8.549 8.549 0 0 1-3.204.578h-5.131v1.138h5.132a10.205 10.205 0 0 0 3.782-.674 8.204 8.204 0 0 0 2.93-1.934c.06-.062.114-.133.171-.196.318-.35.605-.724.86-1.122.348-.55.64-1.138.868-1.749.467-1.301.695-2.676.674-4.06a12.67 12.67 0 0 0-.207-2.299" fill="#fff" fill-rule="evenodd" data-name="Path 27375"/><path d="M1441.85 269.343c.56-1.898.56-3.915 0-5.812a6.938 6.938 0 0 0-.52-1.215 5.727 5.727 0 0 0-.698-1.006l-.035-.036a5.355 5.355 0 0 0-1.926-1.388 7.163 7.163 0 0 0-5.267 0c-.24.106-.473.228-.697.365.118.384.214.773.286 1.167.277-.23.583-.424.91-.576a5.577 5.577 0 0 1 4.279 0c.6.277 1.124.695 1.527 1.218.06.077.113.162.167.244.322.483.565 1.015.72 1.575.01.03.02.056.027.087a10.3 10.3 0 0 1 0 4.958c-.009.034-.021.065-.032.1a5.398 5.398 0 0 1-.734 1.577c-.05.07-.096.146-.148.213-.406.52-.933.933-1.535 1.202a5.682 5.682 0 0 1-4.278 0 4.05 4.05 0 0 1-1.524-1.201c-.298-.39-.539-.82-.713-1.276a8.298 8.298 0 0 1-.859 1.121 5.368 5.368 0 0 0 2.604 2.315 7.267 7.267 0 0 0 5.267 0 5.314 5.314 0 0 0 1.892-1.343c.023-.025.048-.048.07-.074.261-.304.49-.633.683-.983.219-.393.397-.804.534-1.232" fill="#fff" fill-rule="evenodd" data-name="Path 27376"/><path d="M1449.5 261.55c.045-.035.089-.073.13-.113l.34-.468a5.813 5.813 0 0 0-1.806-1.156 6.2 6.2 0 0 0-2.373-.425 6.356 6.356 0 0 0-2.635.515 5.426 5.426 0 0 0-1.86 1.372l.035.036c.267.31.5.648.697 1.006.065-.094.128-.19.198-.278a4.2 4.2 0 0 1 1.54-1.202 5.577 5.577 0 0 1 3.552-.235 5.28 5.28 0 0 1 1.636.813.714.714 0 0 0 .379.185.273.273 0 0 0 .167-.05" fill="#fff" fill-rule="evenodd" data-name="Path 27377"/><path d="M1448.726 271.502c-.09.063-.18.127-.286.194-.346.21-.715.381-1.1.509a5.051 5.051 0 0 1-1.657.227 4.68 4.68 0 0 1-1.954-.398 4.091 4.091 0 0 1-1.5-1.156 3.93 3.93 0 0 1-.217-.302c-.193.35-.422.679-.682.983-.023.026-.048.047-.072.074a5.168 5.168 0 0 0 1.849 1.365 5.883 5.883 0 0 0 2.389.474 7.34 7.34 0 0 0 1.479-.143c.45-.09.89-.228 1.313-.409.124-.052.238-.113.354-.175a1.297 1.297 0 0 1-.114-.539c0-.17.032-.338.097-.495.027-.073.06-.143.101-.21" fill="#fff" fill-rule="evenodd" data-name="Path 27378"/><path d="M1451.659 271.711a1.323 1.323 0 0 0-.263-.408 1.289 1.289 0 0 0-.392-.273 1.109 1.109 0 0 0-.476-.104 1.106 1.106 0 0 0-.482.104c-.143.066-.273.16-.383.273a1.273 1.273 0 0 0-.258.407c-.13.334-.124.704.018 1.033.058.134.138.257.24.363.224.239.539.37.865.363a1.23 1.23 0 0 0 .868-.362c.11-.117.2-.252.263-.4.068-.158.104-.329.101-.502 0-.17-.034-.338-.101-.494" fill="#fff" fill-rule="evenodd" data-name="Path 27379"/><path d="M1414.986 254.006v.481a.969.969 0 0 1-.194.569L1402.44 272.3h12.435v1.168h-14.306v-.509a.842.842 0 0 1 .165-.495l12.379-17.29h-12.191v-1.17h14.064Z" fill="#fff" fill-rule="evenodd" data-name="Path 27380"/><path d="M1415.872 254.005h1.416v19.465h-1.416v-19.465z" fill="#fff" fill-rule="evenodd" data-name="Rectangle 973"/></g></svg>