<svg xmlns="http://www.w3.org/2000/svg" width="204.382" height="50" viewBox="858 68 204.382 50"><g data-name="Group 3005"><path d="M921.197 109.493v-1.047c-.144-1.838-.488-3.507-1.088-4.949-1.2-2.886-3.225-5.599-4.945-8.469-3.19-5.326-6.78-11.478-9.99-16.844-2.642-4.419-5.106-10.095-11.669-10.183-6.824-.09-9.094 5.709-11.571 9.898C874.07 91.198 858 117.962 858 117.962h7.418s15.332-26.108 22.944-39.302c.973-1.687 2.903-3.902 5.143-3.902 3.398 0 5.099 3.893 6.626 6.566 4.09 7.163 8.032 14.018 11.868 20.937 1.207 2.175 3.656 5.04 1.978 7.993-1.094 1.928-3.299 1.809-6.428 1.809-.005.05-30.263 0-30.263 0v5.9h27.493s6.474.19 9.1-.286c4.341-.784 6.701-4.025 7.318-8.184Z" fill-rule="evenodd" data-name="Path 1"/><path d="M910.067 76.507v1.047c.144 1.839.488 3.506 1.087 4.948 1.2 2.887 3.226 5.599 4.945 8.47 3.19 5.325 6.779 11.479 9.989 16.844 2.643 4.418 5.107 10.094 11.67 10.182 6.825.092 9.095-5.707 11.572-9.897 7.863-13.3 23.934-40.063 23.934-40.063h-7.419S950.513 94.145 942.9 107.34c-.972 1.687-2.902 3.901-5.142 3.901-3.4 0-5.1-3.892-6.626-6.567-4.09-7.162-8.032-14.016-11.868-20.936-1.206-2.176-3.655-5.039-1.978-7.993 1.094-1.928 3.298-1.81 6.428-1.81.004-.048 30.264 0 30.264 0v-5.898h-27.494s-6.473-.19-9.099.284c-4.342.786-6.702 4.027-7.318 8.185Z" fill-rule="evenodd" data-name="Path 2"/><path d="M1010.315 109.493v-1.047c-.144-1.838-.488-3.507-1.087-4.949-1.2-2.886-3.226-5.599-4.945-8.469-3.19-5.326-6.779-11.478-9.989-16.844-2.643-4.419-5.107-10.095-11.67-10.183-6.825-.09-9.095 5.709-11.572 9.898-7.863 13.299-23.934 40.063-23.934 40.063h7.418s15.333-26.108 22.945-39.302c.974-1.687 2.903-3.902 5.143-3.902 3.4 0 5.1 3.893 6.626 6.566 4.09 7.163 8.032 14.018 11.868 20.937 1.207 2.175 3.655 5.04 1.978 7.993-1.094 1.928-3.298 1.809-6.428 1.809-.004.05-30.264 0-30.264 0v5.9H993.9s6.472.19 9.098-.286c4.342-.784 6.702-4.025 7.318-8.184Z" fill-rule="evenodd" data-name="Path 3"/><path d="M999.185 76.507v1.047c.144 1.839.488 3.506 1.088 4.948 1.2 2.887 3.226 5.599 4.945 8.47 3.19 5.325 6.78 11.479 9.99 16.844 2.642 4.418 5.106 10.094 11.669 10.182 6.824.092 9.094-5.707 11.571-9.897 7.864-13.3 23.934-40.063 23.934-40.063h-7.418s-15.332 26.107-22.944 39.303c-.973 1.687-2.903 3.901-5.143 3.901-3.398 0-5.099-3.892-6.626-6.567-4.09-7.162-8.031-14.016-11.868-20.936-1.207-2.176-3.656-5.039-1.978-7.993 1.094-1.928 3.299-1.81 6.429-1.81.004-.048 30.262 0 30.262 0v-5.898h-27.493s-6.474-.19-9.1.284c-4.341.786-6.701 4.027-7.318 8.185Z" fill-rule="evenodd" data-name="Path 4"/></g></svg>