<svg xmlns="http://www.w3.org/2000/svg" width="213.149" height="70.14" viewBox="1473 285 213.149 70.14"><path d="M1616.983 354.468c-.223-11.21 1.524-22.313 5-32.838-9.406.012-18.806-.065-28.211-.246-.885-.01-.885-1.389 0-1.371 5.216.095 10.432.154 15.643.195a31.24 31.24 0 0 0-4.183-13.336c-2.083 3.387-4.766 6.371-8.036 8.647-6.815 4.74-15.518 4.334-19.65-3.538-1.427-2.712-2.54-6.658-2.58-10.459v-.363c.034-3.666 1.102-7.154 3.898-9.201 6.404-4.705 17.168 2.492 21.813 6.941 1.695 1.618 3.18 3.418 4.486 5.334a34.462 34.462 0 0 0 2.454-6.015 46.92 46.92 0 0 1 1.57-9.678c.2-.748 1.37-.602 1.352.182a37.593 37.593 0 0 1-1.54 9.674c-.155 2.945-.006 5.9.485 8.845.228 1.383.468 2.822.907 4.16.72 2.164 2.87 2.287 4.452 1.053 2.203-1.728 3.795-5.61 4.725-8.107.308-.823 1.507-.508 1.325.367-.765 3.633-.737 7.113.062 10.674a115.887 115.887 0 0 0 6.118-6.31c4.23-8.663 9.72-16.731 16.357-23.86.56-.602 1.421.164 1.079.836a113.634 113.634 0 0 1-16.294 23.799 98.982 98.982 0 0 0-4.332 10.394h1.58c.794 0 1.587 0 2.38-.006-.741-3.215.497-6.185 3.345-7.914.525-.312 1.005.154 1.005.631.4-.332 1.136-.12 1.136.508-.006 2.265.582 4.242 1.706 6.129 1.404-1.422 2.134-3.047 2.271-5.157.058-.88 1.353-.896 1.376 0 .034 1.534.462 2.674 1.353 3.758.873-1.488 1.723-3.146 1.689-4.87-.006-.409-.137-.876-.354-1.345a21.71 21.71 0 0 1-5.987-.921c-.445-.131-.605-.604-.41-1.012 1.192-2.432 4.28-2.494 6.294-.934.565.436.965.934 1.256 1.465a20.396 20.396 0 0 0 5.913-1.172c.433-.156.856.246.867.664.057 1.801.114 3.596.166 5.397l1.934-4.88c.223-.558 1.193-.74 1.324 0a28.675 28.675 0 0 0 1.473 5.24c1.193-.782 2.38-1.56 3.573-2.339.308-.205.765-.068.941.246.12.213.246.389.377.54a72.742 72.742 0 0 0 3.92-.813c.8-.7 1.542-1.498 2.147-2.002.348-.297 1.061-.258 1.147.303.046.273.063.543.097.818.114-.035.234-.062.354-.1.845-2.205 2.112-4.183 4.103-5.609 3.276-2.353 7.557-2.748 10.724-.072.331.285.223.879-.142 1.08a72.425 72.425 0 0 1-13.612 5.713c-.131.377-.257.754-.365 1.13a73.238 73.238 0 0 1 18.2 4.046c.73.253.61 1.312-.182 1.347-6.353.297-12.705.541-19.063.75-.04.319-.068.631-.114.953l-.011.104h-.006c-.012.062-.012.119-.023.181-.125.768-1.427.586-1.347-.181l.103-1.008a1380.57 1380.57 0 0 1-41.606.709c-3.521 10.514-5.28 21.629-5.057 32.844.006.449-.33.672-.673.672s-.69-.223-.702-.672Zm-6.192-34.25c3.886.03 7.773.04 11.665.03.833-2.415 1.735-4.81 2.751-7.153a116.39 116.39 0 0 1-4.15 4.117c-.37.353-1.01.213-1.146-.299a26.342 26.342 0 0 1-.908-8.096c-2.283 4.287-6.015 9.356-8.96 5.118a9.107 9.107 0 0 1-.856-1.602 32.885 32.885 0 0 1 1.604 7.885Zm18.754.011c1.404-.011 2.802-.027 4.206-.039a12.483 12.483 0 0 1-1.513-3.841 15.526 15.526 0 0 1-2.693 3.88Zm6.831-.068c9.606-.115 19.21-.32 28.805-.629.028-.2.051-.408.08-.61.074-.997.08-1.997.051-2.991a69.332 69.332 0 0 0-3.19-.127c-.423.35-.84.699-1.256 1.05-.24.204-.548.272-.833.112a6.518 6.518 0 0 1-1.484-1.143h-.354c-.354.012-.57-.254-.645-.55-1.107.732-2.22 1.458-3.333 2.183-.41.273-.85-.021-1.01-.404a29.059 29.059 0 0 1-1.324-3.957c-.776 1.96-1.553 3.922-2.334 5.883-.28.703-1.325.634-1.347-.182-.086-2.596-.166-5.197-.246-7.799a21.35 21.35 0 0 1-4.954.94c.48 2.574-.999 5.652-2.26 7.771a.695.695 0 0 1-1.078.137 7.652 7.652 0 0 1-1.667-2.287 8.766 8.766 0 0 1-1.62 2.603Zm30.232-.996c-.012.11-.012.213-.018.32 5.034-.166 10.068-.365 15.102-.586a71.964 71.964 0 0 0-14.57-2.816 35.246 35.246 0 0 0-.514 3.082Zm-34.73-5.644c-1.951 1.181-2.961 3.101-2.858 5.248 1.34-1.545 2.271-3.237 2.882-5.266Zm-55.388-10.99c.194 4.452 1.666 9.58 5.176 12.577 4.458 3.801 10.456 2.293 14.834-.779 3.264-2.285 5.9-5.328 7.921-8.77a32.249 32.249 0 0 0-6.529-7.294c-3.396-2.791-7.482-5.002-11.791-5.942a10.77 10.77 0 0 0-2.312-.261c-5.473 0-7.539 5.04-7.299 10.468Zm92.828 7.939c-.302.468-.565.959-.81 1.459a70.746 70.746 0 0 0 11.278-4.74 6.16 6.16 0 0 0-3.208-.876c-2.814 0-5.696 1.756-7.26 4.157Zm-63.304-4.92a32.775 32.775 0 0 1 2.653 5.365c-.827-2.754-.981-6.006-1.078-8.61a35.484 35.484 0 0 1-1.575 3.245Zm30.659 4.422c1.267.322 2.523.527 3.778.607-.673-.762-1.524-1.316-2.345-1.316-.503 0-1 .209-1.433.709Zm-5.32-6.024a112.918 112.918 0 0 0 8.716-12.72 96.357 96.357 0 0 0-8.715 12.72Zm-145.677 38.906c-.45-.03-.89-.443-.708-.931a173.894 173.894 0 0 1 9.218-20.834c-.035-.295-.063-.586-.103-.863-.069-.504.183-.899.72-.944.113-.008.227-.031.353-.04a163.681 163.681 0 0 1 2.42-4.34c-2.118-.61-3.796-1.952-4.178-4.454-5.353 4.615-12.379 7.278-19.684 6.696-.457-.036-.69-.395-.714-.754v-.1c.023-.353.257-.668.714-.635 7.34.584 14.416-2.279 19.61-7.15.222-6.574 4.04-13.182 8.452-17.742.434-.451 1.302-.125 1.267.527-.354 6.873-3.498 13.152-8.23 17.824-.005 1.756.571 3.414 2.82 4.348.211.086.44.14.673.191a173.558 173.558 0 0 1 20.82-28.425c.411-.456 1.045-.153 1.245.326 5.079 12.654-2.437 27.123-16.044 29.496-1.638.283-3.504.406-5.227.178a133.896 133.896 0 0 0-2.118 3.755 19.553 19.553 0 0 0 4.218-1.28c.394-.165.765-.093 1.016.267.56.802.884 1.494 1.118 2.351 5.485-1.467 11.37-2.207 16.648-.023 6.53 2.71 14.046.933 20.295-1.75.04-.016.086-.04.126-.057a109.366 109.366 0 0 1 13.909-25.293c.559-.765 1.849-.023 1.284.75a108.491 108.491 0 0 0-13.224 23.645c10.262-5.026 18.355-13.713 22.869-24.24.377-.881 1.655-.12 1.284.75-4.766 11.12-13.549 20.29-24.558 25.334-.131.054-.268.113-.394.171-.097.245-.177.5-.268.748a75.982 75.982 0 0 0 8.001-4.334c.52-.318 1.068.114 1.119.645.542 5.33 6.175 3.14 9.331 2.174 3.03-.932 5.976-2.07 8.87-3.363.867-.387 1.626.894.753 1.285-4.749 2.123-10.838 5.091-16.118 5.205-2.745.064-3.743-1.819-4.154-4.106a75.633 75.633 0 0 1-8.482 4.43c-2.282 6.473-3.994 13.156-5.028 20.01-.142.945-1.575.539-1.432-.397.965-6.418 2.528-12.69 4.594-18.783a73.644 73.644 0 0 1-3.778 1.463c-.902.32-1.29-1.12-.394-1.44a76.478 76.478 0 0 0 4.817-1.925c.097-.268.177-.545.274-.807-4.862 1.947-10.164 3.162-15.375 2.537-3.105-.369-5.764-2.062-8.795-2.447-4.138-.525-8.555.338-12.527 1.455-.36.102-.834-.133-.908-.523a4.6 4.6 0 0 0-.765-2.202 22.11 22.11 0 0 1-5.205 1.38c-.137.253-.268.503-.4.761.914 8.408.132 19.322-9.821 21.467-.035.006-.069.013-.103.013h-.103Zm1.227-1.865c6.974-2.414 8.007-10.336 7.545-17.199a172.097 172.097 0 0 0-7.545 17.2Zm12.99-27.123c.536.024 1.067.018 1.552.01 2.432-.05 4.829-.672 7.06-1.629 9.845-4.21 14.148-15.16 10.861-25.05a172.138 172.138 0 0 0-19.473 26.67Zm-4.68-7.789c-.04.195-.074.393-.114.598 3.247-3.672 5.502-8.211 6.226-13.178-3.042 3.629-5.176 7.871-6.112 12.58Z" fill="#fff" fill-rule="evenodd" data-name="Union 1"/></svg>