<svg xmlns="http://www.w3.org/2000/svg" width="25" height="25" viewBox="1753 80 25 25"><g data-name="Group 5511"><path d="M1776.409 82.095a6.228 6.228 0 0 0-4.66-2.095h-2.156v6.638l6.816-4.543Z" fill="#0d2764" fill-rule="evenodd" data-name="Path 27777"/><path d="M1761.406 80h-2.156a6.227 6.227 0 0 0-4.66 2.095l6.816 4.544V80Z" fill="#0d2764" fill-rule="evenodd" data-name="Path 27778"/><path d="M1778 88.407v-1.08l-1.622 1.08H1778Z" fill="#0d2764" fill-rule="evenodd" data-name="Path 27779"/><path d="M1778 97.7v-1.104h-1.657L1778 97.7Z" fill="#0d2764" fill-rule="evenodd" data-name="Path 27780"/><path d="M1753 96.596V97.7l1.656-1.104H1753Z" fill="#0d2764" fill-rule="evenodd" data-name="Path 27781"/><path d="M1769.593 105h2.157a6.227 6.227 0 0 0 4.646-2.08l-6.803-4.533V105Z" fill="#0d2764" fill-rule="evenodd" data-name="Path 27782"/><path d="M1754.604 102.92a6.228 6.228 0 0 0 4.646 2.08h2.156v-6.614l-6.802 4.534Z" fill="#0d2764" fill-rule="evenodd" data-name="Path 27783"/><path d="M1753 87.327v1.08h1.622l-1.622-1.08Z" fill="#0d2764" fill-rule="evenodd" data-name="Path 27784"/><path d="M1763.11 80h-1.704v6.639l-6.816-4.544a6.23 6.23 0 0 0-1.3 2.271l6.076 4.042h-3.241l-3.125-2.08v.999l1.622 1.08H1753v1.706h10.11V80Z" fill="#fff" fill-rule="evenodd" data-name="Path 27785"/><path d="M1767.887 105h1.706v-6.613l6.803 4.533a6.233 6.233 0 0 0 1.329-2.335l-6-3.99h3.24l3.035 2.018V97.7l-1.657-1.104H1778v-1.709h-10.113V105Z" fill="#fff" fill-rule="evenodd" data-name="Path 27786"/><path d="M1769.593 88.408v-.817l7.317-4.865a6.292 6.292 0 0 0-.501-.631l-6.816 4.543V80h-1.706v10.113H1778v-1.705h-1.622l1.622-1.082V86.25a6.24 6.24 0 0 0-.295-1.897l-6.095 4.055h-2.017Z" fill="#fff" fill-rule="evenodd" data-name="Path 27787"/><path d="M1753 94.887v1.709h1.656L1753 97.7v1.05c0 .64.097 1.256.275 1.837l6.004-3.991h2.127v.738l-7.352 4.89c.165.246.352.476.55.696l6.802-4.534V105h1.705V94.887H1753Z" fill="#fff" fill-rule="evenodd" data-name="Path 27788"/><path d="M1767.887 80h-4.776v10.113H1753v4.774h10.11V105h4.777V94.887H1778v-4.774h-10.113V80Z" fill="#c20320" fill-rule="evenodd" data-name="Path 27789"/><path d="m1771.725 96.596 6 3.99c.178-.581.275-1.197.275-1.836v-.137l-3.034-2.017h-3.241Z" fill="#c20320" fill-rule="evenodd" data-name="Path 27790"/><path d="M1769.593 87.591v.817h2.017l6.095-4.055a6.232 6.232 0 0 0-.795-1.627l-7.317 4.865Z" fill="#c20320" fill-rule="evenodd" data-name="Path 27791"/><path d="M1761.406 96.596h-2.127l-6.004 3.991c.18.587.445 1.137.78 1.636l7.351-4.89v-.737Z" fill="#c20320" fill-rule="evenodd" data-name="Path 27792"/><path d="m1759.366 88.408-6.076-4.042a6.245 6.245 0 0 0-.29 1.884v.079l3.125 2.079h3.241Z" fill="#c20320" fill-rule="evenodd" data-name="Path 27793"/></g></svg>