<svg xmlns="http://www.w3.org/2000/svg" width="129.363" height="60" viewBox="66 58 129.363 60"><g data-name="Group 4753"><g data-name="Group 4752" transform="translate(66 58)" clip-path="url(&quot;#a&quot;)"><path d="M80.117 29.573a26.615 26.615 0 0 0-.726-2.947c-.147-.48-.281-.964-.453-1.425a22.054 22.054 0 0 0-4.792-7.745 20.696 20.696 0 0 0-7.399-4.895 25.745 25.745 0 0 0-9.55-1.707H44.24v2.882h12.956c2.767-.035 5.514.46 8.095 1.459a17.08 17.08 0 0 1 6.234 4.24 19.314 19.314 0 0 1 4.011 6.806c.325.954.59 1.927.789 2.916.335 1.611.531 3.248.587 4.895.017.453.048.892.048 1.357a27.602 27.602 0 0 1-1.388 9.088c-.015.037-.023.078-.036.115a20.258 20.258 0 0 1-2.47 4.86c-.466.687-.98 1.34-1.541 1.952a17.064 17.064 0 0 1-6.234 4.233c-2.58 1-5.324 1.496-8.09 1.46H44.24v2.88h12.955a25.729 25.729 0 0 0 9.55-1.7 20.718 20.718 0 0 0 7.398-4.893c.153-.158.285-.338.434-.499a20.85 20.85 0 0 0 2.169-2.83 23.791 23.791 0 0 0 2.193-4.416 29.123 29.123 0 0 0 1.7-10.25 32.112 32.112 0 0 0-.523-5.836" fill-rule="evenodd" data-name="Path 27397"/><path d="M104.228 49.578a23.554 23.554 0 0 0 1.06-7.322 23.828 23.828 0 0 0-1.06-7.35 17.534 17.534 0 0 0-1.312-3.068 14.403 14.403 0 0 0-1.76-2.539c-.028-.033-.06-.062-.088-.093a13.515 13.515 0 0 0-4.862-3.503 16.574 16.574 0 0 0-6.648-1.266 16.548 16.548 0 0 0-6.65 1.266c-.606.265-1.196.574-1.76.921.298.968.538 1.953.722 2.949a10.453 10.453 0 0 1 2.286-1.457 12.657 12.657 0 0 1 5.4-1.078 12.672 12.672 0 0 1 5.402 1.078c1.515.7 2.837 1.754 3.855 3.075.151.194.284.407.422.614a13.86 13.86 0 0 1 1.817 3.979c.023.074.05.145.07.22.53 2.04.788 4.141.764 6.25a23.815 23.815 0 0 1-.764 6.269c-.023.087-.056.165-.08.25a13.69 13.69 0 0 1-1.854 3.983c-.127.18-.243.368-.375.538a10.25 10.25 0 0 1-3.855 3.042 12.892 12.892 0 0 1-5.402 1.055 12.848 12.848 0 0 1-5.4-1.06 10.193 10.193 0 0 1-3.855-3.039 12.764 12.764 0 0 1-1.8-3.222 20.852 20.852 0 0 1-2.168 2.83c.461.806 1 1.563 1.606 2.264a13.526 13.526 0 0 0 4.97 3.58c2.108.86 4.37 1.285 6.647 1.248 2.278.037 4.54-.387 6.648-1.248a13.413 13.413 0 0 0 4.771-3.393c.056-.064.12-.12.178-.187a14.616 14.616 0 0 0 1.728-2.48 17.083 17.083 0 0 0 1.347-3.106" fill-rule="evenodd" data-name="Path 27398"/><path d="M123.544 29.904c.116-.091.226-.19.327-.296l.867-1.18a14.648 14.648 0 0 0-4.56-2.917 15.67 15.67 0 0 0-5.994-1.072 16.046 16.046 0 0 0-6.654 1.3 13.716 13.716 0 0 0-4.711 3.47c.029.03.06.057.089.09a14.802 14.802 0 0 1 1.76 2.541c.162-.24.321-.482.5-.701a10.584 10.584 0 0 1 3.887-3.035 14.079 14.079 0 0 1 8.967-.596c.869.26 1.711.606 2.514 1.03.563.3 1.105.643 1.618 1.022.263.248.596.412.954.47a.681.681 0 0 0 .436-.126" fill-rule="evenodd" data-name="Path 27399"/><path d="M121.587 55.028c-.23.161-.455.323-.722.492-.875.53-1.806.96-2.777 1.283a12.686 12.686 0 0 1-4.183.588 11.766 11.766 0 0 1-4.933-1.006 10.352 10.352 0 0 1-3.788-2.932 13.045 13.045 0 0 1-.55-.763 14.77 14.77 0 0 1-1.726 2.48c-.058.067-.122.123-.18.187a13.047 13.047 0 0 0 4.665 3.443 14.819 14.819 0 0 0 6.027 1.196 18.487 18.487 0 0 0 3.729-.36 16.755 16.755 0 0 0 3.319-1.029c.312-.134.6-.29.891-.442a3.25 3.25 0 0 1-.287-1.362 3.149 3.149 0 0 1 .244-1.247c.072-.185.163-.363.27-.528" fill-rule="evenodd" data-name="Path 27400"/><path d="M128.994 55.556a3.378 3.378 0 0 0-.666-1.03 3.224 3.224 0 0 0-.99-.69 2.806 2.806 0 0 0-1.201-.258c-.42-.009-.838.08-1.219.258-.362.17-.691.402-.968.69a2.93 2.93 0 0 0-.387.502 3.155 3.155 0 0 0-.267.528c-.327.842-.31 1.779.048 2.609.146.339.351.65.608.916.565.6 1.36.933 2.185.915.414.004.823-.079 1.202-.24.37-.16.705-.387.989-.675.281-.294.505-.637.664-1.012.174-.399.26-.831.255-1.266a3.157 3.157 0 0 0-.253-1.247" fill-rule="evenodd" data-name="Path 27401"/><path d="M36.398 10.854v1.214a2.45 2.45 0 0 1-.486 1.424L4.726 57.047h31.397v2.95H0v-1.282c.002-.451.149-.89.418-1.25l31.257-43.659H.905v-2.952h35.493Z" fill-rule="evenodd" data-name="Path 27402"/><path d="M38.637 10.852h3.578v49.144h-3.578V10.852z" fill-rule="evenodd" data-name="Rectangle 985"/><path d="M126.592 0a1.882 1.882 0 0 0-1.763 1.976v.565h-.505a.534.534 0 0 0-.502.562V6.49a.534.534 0 0 0 .502.563h4.536a.536.536 0 0 0 .502-.563V3.103a.536.536 0 0 0-.504-.562h-.503v-.565A1.883 1.883 0 0 0 126.68.02a.255.255 0 0 0-.089-.02m0 .565a1.338 1.338 0 0 1 1.26 1.41v.564h-2.52v-.563a1.338 1.338 0 0 1 1.26-1.411" fill-rule="evenodd" data-name="Path 27403"/></g></g><defs><clipPath id="a"><path d="M0 0h129.362v60H0V0z" data-name="Rectangle 986"/></clipPath></defs></svg>