<svg xmlns="http://www.w3.org/2000/svg" width="183.644" height="39.7"><g data-name="Group 4748" clip-path="url(&quot;#a&quot;)"><path d="M106.539 31.296c-.67-1.673-1.798-3.244-2.757-4.908-1.779-3.086-3.78-6.652-5.57-9.76-1.474-2.561-2.848-5.851-6.508-5.902-3.805-.053-5.071 3.307-6.452 5.735-4.385 7.707-13.346 23.218-13.346 23.218h4.137s8.55-15.13 12.794-22.777c.542-.978 1.618-2.26 2.867-2.26 1.895 0 2.844 2.255 3.695 3.805 2.281 4.15 4.479 8.123 6.618 12.132.673 1.261 2.038 2.92 1.103 4.633-.61 1.117-1.84 1.048-3.585 1.048-.002.029-16.875 0-16.875 0v3.419h15.331s3.61.109 5.073-.166c2.422-.454 3.737-2.333 4.081-4.742v-.607c-.08-1.066-.272-2.032-.606-2.868" fill-rule="evenodd" data-name="Path 27388"/><path d="M.532 12.466h18.143L.245 38.206a1.255 1.255 0 0 0-.245.737v.757h21.296v-1.74H2.785L21.173 12.28c.191-.272.287-.552.287-.839v-.717H.532v1.741Z" fill-rule="evenodd" data-name="Path 27389"/><path d="M28.544 10.725h2.11V39.7h-2.11V10.725z" fill-rule="evenodd" data-name="Rectangle 980"/><path d="M66.68 10.787c-.11.041-.22.15-.329.327l-11.384 20.13a5.45 5.45 0 0 0-.298.603 19.5 19.5 0 0 0-.255.645 8.335 8.335 0 0 0-.533-1.227l-11.692-20.15c-.11-.178-.222-.287-.338-.328a1.417 1.417 0 0 0-.46-.061h-1.434V39.7h1.822V15.005c0-.369-.02-.751-.06-1.146L53.43 34.13c.205.355.477.532.819.532h.328c.354 0 .628-.177.818-.532l11.406-20.252c-.042.396-.061.772-.061 1.126V39.7h1.843V10.726H67.13c-.192 0-.342.02-.45.061" fill-rule="evenodd" data-name="Path 27390"/><path d="M174.452 39.7h-1.618a.707.707 0 0 1-.47-.153 1.005 1.005 0 0 1-.287-.4l-3.42-8.416h-14.231l-3.4 8.416a.871.871 0 0 1-.287.39.761.761 0 0 1-.49.163h-1.598l11.856-28.975h2.09L174.451 39.7ZM155.06 29.175h12.983l-5.918-14.64a10.767 10.767 0 0 1-.287-.79 28.598 28.598 0 0 1-.286-.931c-.096.328-.192.638-.288.931-.094.294-.19.564-.286.81l-5.918 14.62Z" fill-rule="evenodd" data-name="Path 27391"/><path d="M181.535 10.725h2.11V39.7h-2.11V10.725z" fill-rule="evenodd" data-name="Rectangle 981"/><path d="m127.942 31.371-6.411 6.291-1.96-1.86 6.413-6.38m10.329-6.469-6.5 6.468m6.5-10.366 2.137-2.127 1.96 1.95-2.138 2.126m-10.33 6.468 6.412-6.38m-14.871 10.279-2.137 2.126-1.96-1.949 2.138-2.127m10.418-6.468-6.5 6.468m6.5-10.366 6.323-6.292 1.96 1.95-6.412 6.29m-10.33 6.47 6.501-6.47m8.103 4.254 6.322 6.291-1.959 1.95-6.322-6.38m-1.96-1.861-10.596-10.545 1.959-1.949 10.597 10.545m-1.96 10.279-6.5-6.469m10.42 6.469 2.136 2.214-1.959 1.861-2.137-2.126m-6.501-10.28 6.501 6.38m-10.418-6.38-6.323-6.378 1.959-1.95 6.322 6.38m12.645 8.063-8.46 8.329-4.185-4.164m10.42-18.697 8.37 8.418-4.186 4.164m-14.604-14.53 4.186-4.166 4.274 4.165m-12.645 4.165 2.227-2.216m0 16.748-8.371-8.33 4.185-4.253m16.83 8.329-6.5 6.468-2.227-2.214m6.501-14.798 6.412 6.468-2.227 2.215M125.627 16.84l2.227-2.215 2.315 2.215m-8.727 4.165 2.315-2.215m0 12.848-6.5-6.38 2.226-2.304" stroke-linejoin="round" stroke-linecap="round" stroke-width=".5" stroke="#000" fill="transparent" data-name="Path 27392"/><path d="M.384 1.81v1.063H0V.03h.842c.159-.002.317.02.47.064a.906.906 0 0 1 .331.178.716.716 0 0 1 .196.277.98.98 0 0 1 .065.363.919.919 0 0 1-.07.364.781.781 0 0 1-.204.283.967.967 0 0 1-.333.184 1.427 1.427 0 0 1-.455.066H.384Zm0-.305h.458a.89.89 0 0 0 .29-.044.6.6 0 0 0 .213-.122.509.509 0 0 0 .129-.188.626.626 0 0 0 .044-.24.546.546 0 0 0-.168-.424.735.735 0 0 0-.508-.152H.384v1.17Zm5.25-.052c.003.2-.03.4-.1.587a1.284 1.284 0 0 1-.73.757 1.502 1.502 0 0 1-.576.106 1.497 1.497 0 0 1-.572-.106 1.289 1.289 0 0 1-.73-.757 1.636 1.636 0 0 1-.101-.586 1.64 1.64 0 0 1 .101-.586 1.285 1.285 0 0 1 .73-.76c.182-.074.376-.11.572-.108.197-.003.392.034.574.107a1.288 1.288 0 0 1 .731.76c.07.188.104.387.102.586m-.396 0a1.469 1.469 0 0 0-.071-.47A1 1 0 0 0 4.964.63.881.881 0 0 0 4.647.41a1.098 1.098 0 0 0-.419-.078 1.085 1.085 0 0 0-.415.078.898.898 0 0 0-.523.573c-.05.151-.074.31-.072.47-.002.16.022.317.072.469a.887.887 0 0 0 .522.572c.132.052.273.077.416.076.143.001.285-.024.418-.077a.867.867 0 0 0 .317-.22c.092-.102.161-.222.205-.351.05-.152.073-.31.071-.469M6.441.03h.32c.03 0 .06.009.085.027.022.016.038.04.046.065l.589 1.976c.01.036.02.074.029.115.008.04.017.083.024.128l.028-.129c.009-.04.02-.077.032-.114l.67-1.976A.143.143 0 0 1 8.395.03h.112a.134.134 0 0 1 .131.092l.666 1.976c.027.077.048.156.064.236.008-.044.016-.085.022-.125a.833.833 0 0 1 .026-.111l.591-1.976a.13.13 0 0 1 .129-.092h.3l-.889 2.843h-.346L8.48.705a1.184 1.184 0 0 1-.04-.143 3.194 3.194 0 0 1-.02.077c-.007.024-.013.047-.02.066l-.723 2.168H7.33L6.44.03Zm6.725 0v.314h-1.37v.945h1.109v.301h-1.108v.97h1.369v.313h-1.757V.03h1.757Zm1.575 1.657v1.186h-.385V.03h.806c.158-.002.314.017.468.055.117.03.228.084.324.158a.62.62 0 0 1 .19.25.824.824 0 0 1 .062.325.742.742 0 0 1-.187.516.812.812 0 0 1-.22.179 1.071 1.071 0 0 1-.294.11.42.42 0 0 1 .127.121l.83 1.129h-.342a.169.169 0 0 1-.155-.08l-.739-1.016a.213.213 0 0 0-.074-.07.26.26 0 0 0-.12-.02h-.291Zm0-.28h.403c.1.003.201-.011.298-.04a.623.623 0 0 0 .214-.114.476.476 0 0 0 .13-.179.567.567 0 0 0 .044-.228.452.452 0 0 0-.168-.383.81.81 0 0 0-.5-.128h-.421v1.072ZM19.23.03v.314h-1.368v.945h1.108v.301h-1.108v.97h1.368v.313h-1.755V.03h1.755Zm3.622 1.423a1.59 1.59 0 0 1-.101.58c-.063.169-.16.321-.286.45a1.267 1.267 0 0 1-.444.288c-.183.07-.377.105-.573.102h-1.066V.03h1.066c.196-.001.39.033.573.103.167.064.317.163.444.29.125.128.223.281.286.45.07.185.104.382.101.58m-.395 0a1.435 1.435 0 0 0-.072-.468.99.99 0 0 0-.203-.349.852.852 0 0 0-.318-.218 1.103 1.103 0 0 0-.416-.076h-.678v2.22h.678c.143.002.283-.024.416-.076a.862.862 0 0 0 .318-.218c.09-.1.16-.219.203-.346.05-.152.074-.31.072-.469m2.882 1.42V.03h.908c.153-.002.305.016.453.052a.885.885 0 0 1 .312.147c.08.061.142.141.18.233a.772.772 0 0 1 .027.513.595.595 0 0 1-.1.18.71.71 0 0 1-.166.149.923.923 0 0 1-.236.107c.176.026.34.104.472.224.108.116.166.27.158.429a.798.798 0 0 1-.066.33.7.7 0 0 1-.195.255.9.9 0 0 1-.315.166c-.137.04-.28.061-.424.059l-1.008-.001Zm.385-1.295v.99h.617a.942.942 0 0 0 .284-.038.515.515 0 0 0 .194-.106c.05-.044.09-.1.112-.163a.573.573 0 0 0 .036-.207.426.426 0 0 0-.156-.348.732.732 0 0 0-.472-.128h-.615Zm0-.274h.51c.095.002.19-.01.282-.036a.568.568 0 0 0 .2-.099.397.397 0 0 0 .116-.153.51.51 0 0 0 .037-.198.437.437 0 0 0-.151-.367.764.764 0 0 0-.47-.116h-.523v.969Zm3.883.439v1.13h-.384v-1.13L28.179.03h.339a.118.118 0 0 1 .081.027c.02.018.039.04.052.063l.653 1.105c.025.042.047.086.066.13.018.042.034.082.049.122.014-.041.03-.082.048-.123.018-.045.04-.088.065-.13l.65-1.104a.253.253 0 0 1 .05-.06c.022-.02.05-.03.079-.03h.342l-1.045 1.713Z" fill="#bd9e56" fill-rule="evenodd" data-name="Path 27393"/></g><defs><clipPath id="a"><path d="M0 0h183.645v40H0V0z" data-name="Rectangle 982"/></clipPath></defs></svg>